# xmcd
#
# Track frame offsets: 
#        151
#        17406
#        39163
#        54046
#        72293
#        90974
#        113575
#        127638
#        147553
#        166638
#        181905
#        198438
#        216469
#        236174
#
# Disc length: 3384 seconds
#
# Revision: 0
# Processed by: cddbd v1.5.1PL2 Copyright (c) Steve Scherf et al.
# Submitted via: ExactAudioCopy v0.95b4
#
DISCID=ab0d360e
DTITLE=เอม  อภัสรา - เอม..ตลับทอง
DYEAR=2004
DGENRE=Country
TTITLE0=สายตาอ่านกิน
TTITLE1=ฮักอ้ายหลายตายกะชาง
TTITLE2=ผู้บ่าวเมียเผลอ
TTITLE3=แพ้คนข้างบ้าน
TTITLE4=มักย้อนเขาย่อง
TTITLE5=มักอ้ายหลายอีหลี
TTITLE6=มักบ่าวฟังลำ
TTITLE7=หักอกก่อนอกหัก
TTITLE8=หมั้นไม่มีมีมื้อแต่ง
TTITLE9=สาวโลโซ
TTITLE10=ปากว่าไม่แต่ใจรัก
TTITLE11=มักบ่าวโลโซ
TTITLE12=คืนนั้นแค่ฟังลำ
TTITLE13=อภัสราวอนแฟน
EXTD=
EXTT0=
EXTT1=
EXTT2=
EXTT3=
EXTT4=
EXTT5=
EXTT6=
EXTT7=
EXTT8=
EXTT9=
EXTT10=
EXTT11=
EXTT12=
EXTT13=
PLAYORDER=
